HIERARCHY
ROOT Hips
{
 OFFSET 0.000000 0.000000 0.000000
 CHANNELS 6 Xposition Yposition Zposition Yrotation Xrotation Zrotation
 JOINT Chest
 {
  OFFSET 0.000000 14.634200 -0.016200
  CHANNELS 3 Yrotation Xrotation Zrotation
  JOINT Chest2
  {
   OFFSET 0.000000 8.932900 0.033000
   CHANNELS 3 Yrotation Xrotation Zrotation
   JOINT Chest3
   {
    OFFSET 0.000000 8.892300 0.000000
    CHANNELS 3 Yrotation Xrotation Zrotation
    JOINT Chest4
    {
     OFFSET 0.000000 8.883200 0.000000
     CHANNELS 3 Yrotation Xrotation Zrotation
     JOINT Neck
     {
      OFFSET 0.000000 13.173600 0.000000
      CHANNELS 3 Yrotation Xrotation Zrotation
      JOINT Head
      {
       OFFSET 0.000000 8.324600 0.069800
       CHANNELS 3 Yrotation Xrotation Zrotation
       End Site
       {
        OFFSET 0.000000 15.692400 0.036900
       }
      }
     }
     JOINT RightCollar
     {
      OFFSET -2.619200 8.772200 0.000000
      CHANNELS 3 Yrotation Xrotation Zrotation
      JOINT RightShoulder
      {
       OFFSET -12.922000 0.000000 0.000000
       CHANNELS 3 Yrotation Xrotation Zrotation
       JOINT RightElbow
       {
        OFFSET 0.000000 -27.880900 0.000000
        CHANNELS 3 Yrotation Xrotation Zrotation
        JOINT RightWrist
        {
         OFFSET 0.000000 -22.758700 0.008200
         CHANNELS 3 Yrotation Xrotation Zrotation
         End Site
         {
          OFFSET 0.000000 -16.965000 0.000000
         }
        }
       }
      }
     }
     JOINT LeftCollar
     {
      OFFSET 2.619200 8.772200 0.000000
      CHANNELS 3 Yrotation Xrotation Zrotation
      JOINT LeftShoulder
      {
       OFFSET 12.922000 0.000000 0.000000
       CHANNELS 3 Yrotation Xrotation Zrotation
       JOINT LeftElbow
       {
        OFFSET 0.000000 -27.880900 0.000000
        CHANNELS 3 Yrotation Xrotation Zrotation
        JOINT LeftWrist
        {
         OFFSET 0.000000 -22.758700 0.008200
         CHANNELS 3 Yrotation Xrotation Zrotation
         End Site
         {
          OFFSET 0.000000 -16.965000 0.000000
         }
        }
       }
      }
     }
    }
   }
  }
 }
 JOINT RightHip
 {
  OFFSET -12.026800 0.080100 0.008100
  CHANNELS 3 Yrotation Xrotation Zrotation
  JOINT RightKnee
  {
   OFFSET 0.000000 -42.600800 -0.000200
   CHANNELS 3 Yrotation Xrotation Zrotation
   JOINT RightAnkle
   {
    OFFSET 0.000000 -38.219300 0.054300
    CHANNELS 3 Yrotation Xrotation Zrotation
    JOINT RightToe
    {
     OFFSET 0.000000 -9.685800 15.804700
     CHANNELS 3 Yrotation Xrotation Zrotation
     End Site
     {
      OFFSET 0.000000 -1.422300 5.761700
     }
    }
   }
  }
 }
 JOINT LeftHip
 {
  OFFSET 12.026800 0.080100 0.008100
  CHANNELS 3 Yrotation Xrotation Zrotation
  JOINT LeftKnee
  {
   OFFSET 0.000000 -42.600800 -0.000200
   CHANNELS 3 Yrotation Xrotation Zrotation
   JOINT LeftAnkle
   {
    OFFSET 0.000000 -38.219300 0.054300
    CHANNELS 3 Yrotation Xrotation Zrotation
    JOINT LeftToe
    {
     OFFSET 0.000000 -9.685800 15.804700
     CHANNELS 3 Yrotation Xrotation Zrotation
     End Site
     {
      OFFSET 0.000000 -1.422300 5.761700
     }
    }
   }
  }
 }
}
MOTION
Frames: 16
Frame Time: 0.008333
0.000000 90.254400 0.000000 0.000000 -5.767877 0.000000 0.000000 11.653817 0.000000 0.000000 -5.885947 0.000000 0.000000 -0.000000 0.000000 0.000000 -0.000000 0.000000 0.000000 12.528835 0.000000 0.000000 0.711642 0.000000 0.000000 -0.000000 0.000000 0.000000 0.000000 -90.000000 0.000000 -2.309062 0.000000 0.000000 2.309062 0.000000 0.000000 -0.000000 0.000000 0.000000 -0.000000 90.000000 0.000000 -2.309062 0.000000 0.000000 2.309062 0.000000 0.000000 8.520406 0.000000 0.000000 1.905762 0.000000 -0.000000 -4.658285 0.000000 0.000000 -0.000000 0.000000 0.000000 8.520406 0.000000 0.000000 1.905762 0.000000 -0.000000 -4.658285 0.000000 0.000000 -0.000000 0.000000
-10.657161 151.978586 23.066361 169.659074 -18.087648 0.216775 -0.465460 20.558640 0.128618 -0.056337 2.625281 0.050881 -0.099468 4.295495 0.075779 -0.364894 17.633428 0.282377 -2.236733 11.949865 2.850698 -3.037731 -13.090441 3.550546 7.430617 -1.053337 -3.648911 21.808858 -27.744025 -10.725197 13.070582 -56.968957 7.340155 -1.126108 -1.957751 -59.037562 -8.532192 -0.063743 -2.199134 -2.607938 -27.678289 1.922688 36.858800 -32.832921 -53.722132 6.271145 -23.079132 27.886036 -4.554043 -54.114567 12.714606 -26.577540 76.512006 -39.688985 -7.266753 -17.609056 10.434040 0.056825 -0.154848 0.032088 22.518304 -51.849706 -24.058469 76.364428 76.266116 87.103546 6.653776 -1.710150 -4.543869 0.033772 -3.541786 0.788853
-11.938916 144.723422 24.733444 169.656949 -18.093275 0.147220 -0.438837 20.564344 0.200653 -0.059505 2.624538 0.048260 -0.096350 4.297066 0.077711 -0.364250 17.633295 0.282053 -2.232505 11.946540 2.851783 -3.038008 -13.089623 3.552324 7.433328 -1.052764 -3.645951 21.806091 -27.746508 -10.726803 13.090034 -56.958474 7.317551 -1.131632 -1.971922 -59.026240 -8.529545 -0.066281 -2.196611 -2.613907 -27.677408 1.925738 36.862870 -32.832773 -53.722122 6.274831 -23.093373 27.893638 -4.658559 -54.110509 12.841178 -26.603172 76.517228 -39.716023 -7.241355 -17.675640 10.445117 0.025190 -0.095998 0.015431 22.430647 -51.863062 -23.944012 76.314766 76.267115 87.055070 6.674550 -1.652843 -4.516730 0.032075 0.069849 0.019664
-12.999905 138.748356 26.106458 169.664584 -18.094821 0.108380 -0.434601 20.564857 0.237638 -0.059814 2.624908 0.047861 -0.096920 4.297622 0.077110 -0.361632 17.635229 0.281456 -2.230622 11.944210 2.853294 -3.031572 -13.099481 3.550242 7.429734 -1.058192 -3.642217 21.812724 -27.749034 -10.730519 13.112712 -56.945089 7.299708 -1.143903 -1.984735 -59.030225 -8.528504 -0.073871 -2.195325 -2.614880 -27.675206 1.927876 36.865691 -32.834102 -53.722278 6.269380 -23.100197 27.913014 -4.721808 -54.111447 12.908798 -26.632901 76.519952 -39.745029 -7.234775 -17.709780 10.446591 0.015906 -0.065972 0.009745 22.377595 -51.869156 -23.883578 76.277803 76.268394 87.017671 6.677371 -1.625489 -4.508449 0.020427 0.045799 0.012522
-13.762161 134.433264 27.098565 169.672934 -18.098660 0.064278 -0.430565 20.566182 0.281103 -0.060006 2.625205 0.047581 -0.095403 4.299485 0.076211 -0.368946 17.636250 0.275262 -2.221756 11.940874 2.853248 -3.015407 -13.106556 3.542585 7.433554 -1.066451 -3.641532 21.821558 -27.752323 -10.726405 13.128881 -56.932153 7.284208 -1.155607 -1.991115 -59.030956 -8.513583 -0.076616 -2.192060 -2.609133 -27.673807 1.923210 36.855303 -32.842008 -53.718439 6.274402 -23.096588 27.921179 -4.792406 -54.108065 12.984662 -26.650350 76.523383 -39.763917 -7.224247 -17.751288 10.451537 0.004091 -0.029051 0.002507 22.318353 -51.878183 -23.816528 76.269640 76.263944 87.008876 6.682541 -1.597330 -4.499254 0.006073 0.017975 0.003722
-14.246775 131.708061 27.724779 169.675893 -18.102319 0.050279 -0.430462 20.568203 0.294925 -0.061799 2.623654 0.047969 -0.093812 4.301740 0.075181 -0.373258 17.634567 0.274559 -2.213462 11.935468 2.847816 -3.017221 -13.099563 3.544878 7.439862 -1.071558 -3.647586 21.819056 -27.749773 -10.715957 13.143215 -56.926039 7.264085 -1.161813 -1.993472 -59.024485 -8.504251 -0.078587 -2.194888 -2.599600 -27.668616 1.921692 36.844765 -32.841051 -53.721475 6.273762 -23.107281 27.940690 -4.819164 -54.100643 13.010672 -26.647089 76.523388 -39.760782 -7.219336 -17.767973 10.445532 0.002355 -0.015969 0.001443 22.298326 -51.878791 -23.795054 76.257654 76.264027 86.997838 6.684223 -1.584521 -4.497595 0.003332 0.007765 0.002042
-14.513142 130.209336 28.069339 169.675358 -18.106165 0.042853 -0.429124 20.569997 0.303112 -0.061718 2.624086 0.047624 -0.095737 4.299988 0.076244 -0.372104 17.636659 0.273370 -2.212483 11.932074 2.844817 -3.009132 -13.101879 3.540685 7.443686 -1.075932 -3.651041 21.815277 -27.745900 -10.710134 13.178511 -56.915183 7.231266 -1.168161 -2.011908 -59.021865 -8.504228 -0.078306 -2.198275 -2.596143 -27.667541 1.923002 36.850091 -32.840267 -53.723227 6.270197 -23.103446 27.941332 -4.826912 -54.098957 13.024863 -26.638664 76.530582 -39.751574 -7.227183 -17.774520 10.445306 0.002516 -0.011613 0.001542 22.287599 -51.877226 -23.781609 76.247459 76.263386 86.987408 6.693709 -1.574849 -4.497573 0.003485 0.001532 0.002136
-14.641267 129.495701 28.233612 169.675600 -18.108696 0.043972 -0.433235 20.570385 0.301114 -0.060133 2.624819 0.047310 -0.102807 4.297049 0.077144 -0.378197 17.634687 0.269409 -2.200492 11.936390 2.841667 -3.003186 -13.106214 3.533839 7.458822 -1.073678 -3.651469 21.818031 -27.746527 -10.711551 13.192280 -56.905259 7.216282 -1.172111 -2.021306 -59.024131 -8.487661 -0.076708 -2.205485 -2.598187 -27.662279 1.926013 36.850199 -32.838693 -53.723326 6.267712 -23.105752 27.948859 -4.823944 -54.099498 13.019460 -26.647558 76.538746 -39.754806 -7.225094 -17.786581 10.440507 0.003897 -0.008865 0.002388 22.287638 -51.871535 -23.783345 76.235866 76.261016 86.977079 6.682954 -1.571909 -4.492080 -0.000342 -0.000648 -0.000209
-14.693365 129.203854 28.301110 169.678397 -18.111290 0.041761 -0.441396 20.571958 0.302016 -0.063165 2.623588 0.044958 -0.096007 4.299166 0.077874 -0.384792 17.632954 0.266644 -2.194510 11.937310 2.841752 -2.997319 -13.109358 3.529140 7.467726 -1.074022 -3.649943 21.828255 -27.746056 -10.722664 13.192270 -56.899121 7.209130 -1.176400 -2.029488 -59.023983 -8.477402 -0.076553 -2.207260 -2.590610 -27.665857 1.923946 36.849413 -32.828151 -53.722223 6.261492 -23.113930 27.948337 -4.827897 -54.098176 13.020454 -26.651676 76.540325 -39.756770 -7.222792 -17.789012 10.438855 0.003611 -0.007560 0.002213 22.280227 -51.866984 -23.777718 76.227462 76.259075 86.967618 6.687279 -1.571608 -4.491941 0.000510 0.000735 0.000312
-14.711655 129.102265 28.325326 169.686305 -18.111645 0.038265 -0.451281 20.570582 0.299379 -0.061271 2.624921 0.046995 -0.099280 4.297804 0.075539 -0.383148 17.633493 0.268159 -2.193648 11.932572 2.837825 -2.985353 -13.110792 3.523033 7.471162 -1.073255 -3.648965 21.831407 -27.746587 -10.725270 13.196874 -56.896320 7.202135 -1.179105 -2.032632 -59.023467 -8.477382 -0.084926 -2.207602 -2.581187 -27.661678 1.920439 36.840957 -32.822081 -53.718324 6.267164 -23.132788 27.950960 -4.836740 -54.098870 13.021762 -26.658698 76.540379 -39.762248 -7.220522 -17.789133 10.438043 0.003273 -0.006811 0.002006 22.262615 -51.874068 -23.767662 76.249932 76.257927 86.980573 6.681602 -1.566325 -4.486097 -0.001487 -0.000485 -0.000911
-14.717445 129.072595 28.332970 169.689490 -18.111670 0.037502 -0.449693 20.566846 0.297994 -0.062713 2.625883 0.048556 -0.100820 4.297580 0.075792 -0.386566 17.634790 0.269014 -2.190901 11.931562 2.836579 -2.978910 -13.114278 3.519014 7.475065 -1.074862 -3.645477 21.831732 -27.741755 -10.730299 13.204480 -56.896235 7.196099 -1.182373 -2.038868 -59.024793 -8.477937 -0.088490 -2.205968 -2.574184 -27.660003 1.916301 36.836911 -32.817139 -53.716856 6.279072 -23.154848 27.948898 -4.845019 -54.101739 13.022955 -26.640923 76.543379 -39.747646 -7.220363 -17.786059 10.439766 0.000433 -0.008519 0.000265 22.257560 -51.876546 -23.765310 76.275857 76.253062 87.006894 6.669350 -1.567793 -4.484405 -0.001201 0.000258 -0.000736
-14.718887 129.065501 28.335300 169.691875 -18.112368 0.035947 -0.450330 20.567195 0.298294 -0.062998 2.624665 0.047287 -0.102635 4.297806 0.077462 -0.389685 17.634890 0.270015 -2.186886 11.931867 2.834448 -2.971037 -13.121681 3.514270 7.480983 -1.084828 -3.647644 21.826469 -27.738583 -10.729281 13.228720 -56.883836 7.180572 -1.193974 -2.061537 -59.023210 -8.477677 -0.092713 -2.205465 -2.568796 -27.658472 1.914589 36.846171 -32.819144 -53.726335 6.288179 -23.156207 27.946340 -4.851510 -54.104035 13.028349 -26.654246 76.543008 -39.764644 -7.216531 -17.783831 10.440883 -0.000063 -0.010520 -0.000039 22.252111 -51.878898 -23.762165 76.306124 76.253970 87.037043 6.677431 -1.570800 -4.487926 0.000160 0.000883 0.000098
-14.719300 129.064042 28.336705 169.695341 -18.111517 0.034056 -0.452093 20.566246 0.299412 -0.063512 2.624485 0.047877 -0.102743 4.297440 0.075181 -0.393714 17.633453 0.268370 -2.179945 11.929046 2.834463 -2.966784 -13.126284 3.511608 7.485002 -1.088873 -3.643115 21.824695 -27.735109 -10.730070 13.233623 -56.880090 7.178209 -1.195191 -2.075535 -59.028921 -8.475342 -0.092911 -2.202130 -2.568813 -27.663144 1.915962 36.849115 -32.815098 -53.720576 6.296512 -23.156439 27.936806 -4.854254 -54.105782 13.030603 -26.661925 76.539902 -39.773815 -7.217041 -17.782679 10.444657 -0.000827 -0.010521 -0.000507 22.242713 -51.885049 -23.749775 76.323052 76.262021 87.048957 6.681757 -1.569806 -4.490588 0.004465 -0.000167 0.002736
-14.720156 129.063985 28.337112 169.695873 -18.113407 0.036341 -0.453123 20.568022 0.297034 -0.064516 2.623273 0.049755 -0.101688 4.298264 0.073192 -0.394896 17.633729 0.268019 -2.177401 11.924019 2.832232 -2.963479 -13.130883 3.508281 7.484261 -1.093932 -3.641481 21.828434 -27.730176 -10.732195 13.234982 -56.877336 7.173959 -1.194241 -2.086906 -59.034134 -8.474836 -0.095396 -2.200895 -2.577196 -27.668123 1.918344 36.858229 -32.811034 -53.711398 6.303458 -23.157638 27.925619 -4.851094 -54.104861 13.027130 -26.656010 76.539382 -39.768704 -7.221937 -17.781451 10.446612 -0.001160 -0.009204 -0.000711 22.239870 -51.883836 -23.748819 76.340890 76.265584 87.063524 6.691897 -1.572651 -4.490372 0.003751 0.000470 0.002299
-14.720933 129.064172 28.337442 169.697658 -18.115884 0.038046 -0.456712 20.570307 0.296923 -0.064305 2.621098 0.048585 -0.103775 4.296955 0.075958 -0.394954 17.636359 0.265866 -2.175135 11.919586 2.828254 -2.963025 -13.130393 3.506217 7.483912 -1.098923 -3.644396 21.835622 -27.727416 -10.742362 13.228595 -56.868068 7.179713 -1.195317 -2.105588 -59.041550 -8.467248 -0.102936 -2.207113 -2.594125 -27.664798 1.926408 36.872316 -32.807736 -53.706911 6.312517 -23.166778 27.914936 -4.845038 -54.105420 13.021365 -26.664050 76.539914 -39.774531 -7.225542 -17.779492 10.449787 -0.000217 -0.009418 -0.000133 22.238081 -51.881369 -23.749773 76.345724 76.268030 87.067888 6.701859 -1.571771 -4.491580 0.003596 0.000609 0.002204
-14.721211 129.064406 28.337913 169.702514 -18.118573 0.036361 -0.460959 20.567808 0.298855 -0.064032 2.624804 0.046135 -0.104903 4.297362 0.077308 -0.398467 17.633294 0.266673 -2.172040 11.915745 2.821751 -2.961733 -13.127093 3.506429 7.487177 -1.100744 -3.645366 21.836805 -27.721094 -10.742531 13.242746 -56.862632 7.166905 -1.197061 -2.126115 -59.051580 -8.462325 -0.101055 -2.210890 -2.601299 -27.663001 1.932390 36.885847 -32.809153 -53.707781 6.316757 -23.173498 27.905322 -4.844308 -54.106060 13.023069 -26.695381 76.538383 -39.804350 -7.226004 -17.777072 10.451824 0.003720 -0.011488 0.002279 22.228897 -51.881595 -23.747224 76.356548 76.268932 87.077419 6.708709 -1.570916 -4.492482 0.002285 0.000646 0.001400
